<mxfile host="app.diagrams.net" agent="Mozilla/5.0 (Macintosh; Intel Mac OS X 10_15_7) AppleWebKit/605.1.15 (KHTML, like Gecko) Version/18.3.1 Safari/605.1.15" version="26.1.3">
  <diagram name="Page-1" id="cLWdTMfcnbuUxGlTWGRv">
    <mxGraphModel dx="1251" dy="958" grid="1" gridSize="10" guides="1" tooltips="1" connect="1" arrows="1" fold="1" page="1" pageScale="1" pageWidth="827" pageHeight="1169" math="0" shadow="0">
      <root>
        <mxCell id="0" />
        <mxCell id="1" parent="0" />
        <mxCell id="mkP_aDQKYDmyWznJFBvX-1" value="Base de Dados" style="whiteSpace=wrap;strokeWidth=2;rounded=1;verticalAlign=top;" vertex="1" parent="1">
          <mxGeometry x="664" y="20" width="140" height="170" as="geometry" />
        </mxCell>
        <mxCell id="mkP_aDQKYDmyWznJFBvX-2" value="Servidor Web" style="whiteSpace=wrap;strokeWidth=2;rounded=1;verticalAlign=top;" vertex="1" parent="1">
          <mxGeometry x="339" y="20" width="221" height="180" as="geometry" />
        </mxCell>
        <mxCell id="mkP_aDQKYDmyWznJFBvX-3" value="Cliente" style="whiteSpace=wrap;strokeWidth=2;rounded=1;verticalAlign=top;" vertex="1" parent="1">
          <mxGeometry x="20" y="20" width="215" height="180" as="geometry" />
        </mxCell>
        <mxCell id="mkP_aDQKYDmyWznJFBvX-4" value="Navegador do Utilizador" style="shape=cylinder3;boundedLbl=1;backgroundOutline=1;size=10;strokeWidth=2;whiteSpace=wrap;" vertex="1" parent="1">
          <mxGeometry x="47.5" y="55" width="160" height="110" as="geometry" />
        </mxCell>
        <mxCell id="mkP_aDQKYDmyWznJFBvX-5" value="Apache/Nginx com PHP" style="shape=cylinder3;boundedLbl=1;backgroundOutline=1;size=10;strokeWidth=2;whiteSpace=wrap;" vertex="1" parent="1">
          <mxGeometry x="364" y="67" width="166" height="86" as="geometry" />
        </mxCell>
        <mxCell id="mkP_aDQKYDmyWznJFBvX-6" value="MySQL" style="shape=cylinder3;boundedLbl=1;backgroundOutline=1;size=10;strokeWidth=2;whiteSpace=wrap;" vertex="1" parent="1">
          <mxGeometry x="690" y="77" width="90" height="70" as="geometry" />
        </mxCell>
        <mxCell id="mkP_aDQKYDmyWznJFBvX-7" value="1. Pedido HTTP" style="curved=1;startArrow=none;endArrow=block;exitX=1;exitY=0.36;entryX=0;entryY=0.32;rounded=0;" edge="1" parent="1" source="mkP_aDQKYDmyWznJFBvX-4" target="mkP_aDQKYDmyWznJFBvX-5">
          <mxGeometry relative="1" as="geometry">
            <Array as="points">
              <mxPoint x="285" y="91" />
              <mxPoint x="339" y="91" />
            </Array>
          </mxGeometry>
        </mxCell>
        <mxCell id="mkP_aDQKYDmyWznJFBvX-8" value="2. Consultas SQL" style="curved=1;startArrow=block;endArrow=block;exitX=1;exitY=0.5;entryX=0;entryY=0.5;rounded=0;" edge="1" parent="1" source="mkP_aDQKYDmyWznJFBvX-5" target="mkP_aDQKYDmyWznJFBvX-6">
          <mxGeometry relative="1" as="geometry">
            <Array as="points" />
          </mxGeometry>
        </mxCell>
        <mxCell id="mkP_aDQKYDmyWznJFBvX-9" value="3. Resposta HTML" style="curved=1;startArrow=none;endArrow=block;exitX=0;exitY=0.78;entryX=1;entryY=0.72;rounded=0;" edge="1" parent="1" source="mkP_aDQKYDmyWznJFBvX-5" target="mkP_aDQKYDmyWznJFBvX-4">
          <mxGeometry relative="1" as="geometry">
            <Array as="points">
              <mxPoint x="339" y="139" />
              <mxPoint x="285" y="139" />
            </Array>
          </mxGeometry>
        </mxCell>
      </root>
    </mxGraphModel>
  </diagram>
</mxfile>
